<svg width="36" height="36" viewBox="0 0 36 36" fill="none" xmlns="http://www.w3.org/2000/svg">
    <path d="M5.00004 17L5 2H26V7H31L31 22H9.00004L9.00003 17H5.00004Z" fill="#EBECF0"/>
    <path d="M16.5879 18.3718C15.9465 18.3694 15.3947 18.2115 14.9323 17.8983C14.4725 17.5851 14.1182 17.1314 13.8696 16.5373C13.6236 15.9432 13.5018 15.2286 13.5042 14.3933C13.5042 13.5606 13.6273 12.8509 13.8734 12.2642C14.122 11.6776 14.4762 11.2314 14.9361 10.9256C15.3984 10.6174 15.949 10.4633 16.5879 10.4633C17.2267 10.4633 17.7761 10.6174 18.2359 10.9256C18.6983 11.2339 19.0538 11.6813 19.3024 12.268C19.5509 12.8521 19.674 13.5606 19.6715 14.3933C19.6715 15.231 19.5472 15.947 19.2986 16.5411C19.0525 17.1352 18.6995 17.5888 18.2397 17.902C17.7798 18.2152 17.2292 18.3718 16.5879 18.3718ZM16.5879 17.0332C17.0254 17.0332 17.3746 16.8133 17.6356 16.3733C17.8966 15.9333 18.0259 15.2733 18.0234 14.3933C18.0234 13.8141 17.9638 13.3319 17.8444 12.9466C17.7276 12.5613 17.5611 12.2717 17.3448 12.0778C17.131 11.8839 16.8787 11.787 16.5879 11.787C16.1529 11.787 15.8048 12.0045 15.5438 12.4395C15.2828 12.8745 15.1511 13.5258 15.1486 14.3933C15.1486 14.98 15.207 15.4697 15.3238 15.8624C15.4432 16.2527 15.6109 16.546 15.8272 16.7424C16.0435 16.9363 16.297 17.0332 16.5879 17.0332Z"
          fill="#6C707E" fill-opacity="0.8"/>
    <path d="M25.96 10.5677V18.2041H24.3454V12.1002H24.3007L22.5519 13.1964V11.7646L24.4424 10.5677H25.96Z"
          fill="#4CC764"/>
    <path fill-rule="evenodd" clip-rule="evenodd"
          d="M3.42856 2.21429C3.42856 1.54366 3.97222 1 4.64284 1H25.2857C26.627 1 27.7143 2.08732 27.7143 3.42857V5.85714H30.1428C31.4841 5.85714 32.5714 6.94446 32.5714 8.28571V20.4286C32.5714 21.7698 31.4841 22.8571 30.1428 22.8571H10.7143V33.7857C10.7143 34.4562 10.1706 35 9.49999 35C8.82936 35 8.2857 34.4562 8.2857 33.7857V18H5.85713V28.9286C5.85713 29.5991 5.31347 30.1429 4.64284 30.1429C3.97222 30.1429 3.42856 29.5991 3.42856 28.9286V2.21429ZM30.1428 20.4286H10.7143V8.28571H30.1428V20.4286ZM25.2857 5.85714H9.49999C8.82936 5.85714 8.2857 6.4008 8.2857 7.07143V15.5714H5.85713V3.42857H25.2857V5.85714Z"
          fill="#6C707E"/>
</svg>
