<svg width="16" height="16" viewBox="0 0 16 16" fill="none" xmlns="http://www.w3.org/2000/svg">
    <path fill-rule="evenodd" clip-rule="evenodd"
          d="M2.5 1C2.22386 1 2 1.22386 2 1.5V14.5C2 14.7761 2.22386 15 2.5 15C2.77614 15 3 14.7761 3 14.5V10H13C13.5523 10 14 9.55228 14 9V2C14 1.44772 13.5523 1 13 1C9.83333 1 5.66667 1 2.5 1ZM3 2H13V9H3V2Z"
          fill="#6C707E"/>
    <path d="M3 2V9H13V2H3Z" fill="#EBECF0"/>
    <path d="M10.9844 3.33636V7.7H10.0618V4.21207H10.0362L9.03693 4.83849V4.02031L10.1172 3.33636H10.9844Z"
          fill="#4CC764"/>
    <path d="M5.9992 7.79588C5.63272 7.79446 5.31738 7.70426 5.05318 7.52528C4.79039 7.3463 4.58798 7.08707 4.44593 6.74758C4.30531 6.40809 4.23571 5.99971 4.23713 5.52244C4.23713 5.04659 4.30744 4.64105 4.44806 4.30582C4.59011 3.97059 4.79252 3.71562 5.05531 3.54091C5.31951 3.36477 5.63414 3.2767 5.9992 3.2767C6.36426 3.2767 6.67818 3.36477 6.94096 3.54091C7.20517 3.71704 7.40829 3.97272 7.55034 4.30795C7.69238 4.64176 7.7627 5.04659 7.76128 5.52244C7.76128 6.00113 7.69025 6.41022 7.54821 6.74971C7.40758 7.0892 7.20588 7.34843 6.94309 7.52741C6.68031 7.70639 6.36568 7.79588 5.9992 7.79588ZM5.9992 7.03096C6.2492 7.03096 6.44877 6.90525 6.59792 6.65383C6.74707 6.40241 6.82093 6.02528 6.81951 5.52244C6.81951 5.19147 6.78542 4.91591 6.71724 4.69574C6.65048 4.47556 6.55531 4.31008 6.43173 4.19929C6.30957 4.08849 6.16539 4.03309 5.9992 4.03309C5.75062 4.03309 5.55176 4.15738 5.40261 4.40596C5.25346 4.65454 5.17818 5.0267 5.17676 5.52244C5.17676 5.85767 5.21014 6.1375 5.2769 6.36193C5.34508 6.58494 5.44096 6.75255 5.56454 6.86477C5.68812 6.97557 5.83301 7.03096 5.9992 7.03096Z"
          fill="#6C707E" fill-opacity="0.8"/>
</svg>
