<svg width="16" height="16" viewBox="0 0 16 16" fill="none" xmlns="http://www.w3.org/2000/svg">
    <path d="M7.95651 4C8.23266 4 8.45651 4.22386 8.45651 4.5V7.13413L11.2307 5.53243C11.4698 5.39436 11.7756 5.47629 11.9137 5.71544C12.0518 5.95459 11.9698 6.26038 11.7307 6.39845L8.95645 8.00019L11.7341 9.6039C11.9733 9.742 12.0552 10.0478 11.9171 10.2869C11.7791 10.5261 11.4733 10.608 11.2341 10.4699L8.45651 8.86625L8.45649 11.5C8.45649 11.7761 8.23264 12 7.95649 12C7.68035 12 7.45649 11.7761 7.45649 11.5L7.45651 8.86618L4.68906 10.4639C4.44991 10.602 4.14411 10.52 4.00604 10.2809C3.86797 10.0417 3.94991 9.73594 4.18906 9.59794L6.95645 8.00019L4.18301 6.39894C3.94386 6.26087 3.86193 5.95508 4 5.71593C4.13807 5.47678 4.44386 5.39485 4.68301 5.53292L7.45651 7.1342V4.5C7.45651 4.22386 7.68037 4 7.95651 4Z"
          fill="#548AF7"/>
</svg>
