<svg width="14" height="14" viewBox="0 0 14 14" fill="none" xmlns="http://www.w3.org/2000/svg">
    <path fill-rule="evenodd" clip-rule="evenodd"
          d="M2.5 1C2.22386 1 2 1.22386 2 1.5V12.5C2 12.7761 2.22386 13 2.5 13C2.77614 13 3 12.7761 3 12.5V8H11C11.5523 8 12 7.55228 12 7V2C12 1.44772 11.5523 1 11 1C7.83333 1 5.66667 1 2.5 1ZM3 2H11V7H3V2Z"
          fill="#6C707E"/>
    <path d="M3 2L3.00002 7H11L11 2H3Z" fill="#EBECF0"/>
    <path d="M5.49947 6.06392C5.25515 6.06297 5.04492 6.00284 4.86879 5.88352C4.6936 5.7642 4.55865 5.59138 4.46396 5.36506C4.37021 5.13873 4.3238 4.86648 4.32475 4.5483C4.32475 4.23106 4.37163 3.9607 4.46538 3.73722C4.56007 3.51373 4.69502 3.34375 4.87021 3.22727C5.04634 3.10985 5.2561 3.05114 5.49947 3.05114C5.74284 3.05114 5.95212 3.10985 6.12731 3.22727C6.30344 3.3447 6.43886 3.51515 6.53356 3.73864C6.62826 3.96117 6.67513 4.23106 6.67418 4.5483C6.67418 4.86742 6.62683 5.14015 6.53214 5.36648C6.43839 5.5928 6.30392 5.76562 6.12873 5.88494C5.95354 6.00426 5.74379 6.06392 5.49947 6.06392ZM5.49947 5.55398C5.66613 5.55398 5.79918 5.47017 5.89862 5.30256C5.99805 5.13494 6.04729 4.88352 6.04634 4.5483C6.04634 4.32765 6.02362 4.14394 5.97816 3.99716C5.93365 3.85038 5.87021 3.74006 5.78782 3.66619C5.70638 3.59233 5.61026 3.5554 5.49947 3.5554C5.33375 3.5554 5.20117 3.63826 5.10174 3.80398C5.00231 3.9697 4.95212 4.2178 4.95117 4.5483C4.95117 4.77178 4.97343 4.95833 5.01793 5.10795C5.06339 5.25663 5.12731 5.36837 5.20969 5.44318C5.29208 5.51705 5.38867 5.55398 5.49947 5.55398Z"
          fill="#6C707E" fill-opacity="0.8"/>
    <path d="M9.0229 3.09091V6H8.40785V3.67472H8.3908L7.72461 4.09233V3.54688L8.44478 3.09091H9.0229Z"
          fill="#4CC764"/>
</svg>
