<svg width="16" height="16" viewBox="0 0 16 16" fill="none" xmlns="http://www.w3.org/2000/svg">
    <path fill-rule="evenodd" clip-rule="evenodd"
          d="M7.00001 7V6C7.00001 5 7.23933 5 8.00001 5C8.76069 5 9.00001 5 9.00001 6V7H7.00001ZM8.00001 4C5.88545 4 6.00001 5.346 6.00001 7C6.00001 7 5.72657 7 5.50001 7C5.25001 7 5.00001 7.25 5.00001 7.5C5.00001 7.77734 5 11.4997 5 11.4997C5.00001 11.75 5.25391 12 5.50001 12H10.4983C10.7539 12 11 11.75 11 11.4997V7.49609C11 7.24609 10.75 7 10.4983 7H10C10 5.346 10.1146 4 8.00001 4Z"
          fill="#E55765"/>
</svg>
