<svg width="16" height="16" viewBox="0 0 16 16" fill="none" xmlns="http://www.w3.org/2000/svg">
    <path d="M3.00002 7L3 2H11V4H13V9H5.00002L5.00001 7H3.00002Z" fill="#EBECF0"/>
    <path fill-rule="evenodd" clip-rule="evenodd"
          d="M2 1.5C2 1.22386 2.22386 1 2.5 1H11C11.5523 1 12 1.44772 12 2V3H13C13.5523 3 14 3.44772 14 4V9C14 9.55228 13.5523 10 13 10H5V14.5C5 14.7761 4.77614 15 4.5 15C4.22386 15 4 14.7761 4 14.5V8H3V12.5C3 12.7761 2.77614 13 2.5 13C2.22386 13 2 12.7761 2 12.5V1.5ZM5 4V9H13V4H5ZM11 3H4.5C4.22386 3 4 3.22386 4 3.5V7H3V2H11V3Z"
          fill="#6C707E"/>
    <path d="M7.49947 8.06392C7.25515 8.06297 7.04492 8.00284 6.86879 7.88352C6.6936 7.7642 6.55865 7.59138 6.46396 7.36506C6.37021 7.13873 6.3238 6.86648 6.32475 6.5483C6.32475 6.23106 6.37163 5.9607 6.46538 5.73722C6.56007 5.51373 6.69502 5.34375 6.87021 5.22727C7.04634 5.10985 7.2561 5.05114 7.49947 5.05114C7.74284 5.05114 7.95212 5.10985 8.12731 5.22727C8.30344 5.3447 8.43886 5.51515 8.53356 5.73864C8.62826 5.96117 8.67513 6.23106 8.67418 6.5483C8.67418 6.86742 8.62683 7.14015 8.53214 7.36648C8.43839 7.5928 8.30392 7.76562 8.12873 7.88494C7.95354 8.00426 7.74379 8.06392 7.49947 8.06392ZM7.49947 7.55398C7.66613 7.55398 7.79918 7.47017 7.89862 7.30256C7.99805 7.13494 8.04729 6.88352 8.04634 6.5483C8.04634 6.32765 8.02362 6.14394 7.97816 5.99716C7.93365 5.85038 7.87021 5.74006 7.78782 5.66619C7.70638 5.59233 7.61026 5.5554 7.49947 5.5554C7.33375 5.5554 7.20117 5.63826 7.10174 5.80398C7.00231 5.9697 6.95212 6.2178 6.95117 6.5483C6.95117 6.77178 6.97343 6.95833 7.01793 7.10795C7.06339 7.25663 7.12731 7.36837 7.20969 7.44318C7.29208 7.51705 7.38867 7.55398 7.49947 7.55398Z"
          fill="#6C707E" fill-opacity="0.8"/>
    <path d="M11.0229 5.09091V8H10.4078V5.67472H10.3908L9.72461 6.09233V5.54688L10.4448 5.09091H11.0229Z"
          fill="#4CC764"/>
</svg>
