<svg width="16" height="16" viewBox="0 0 16 16" fill="none" xmlns="http://www.w3.org/2000/svg">
    <path fill-rule="evenodd" clip-rule="evenodd"
          d="M7.00002 7V6C7.00002 5 7.23934 5 8.00002 5C8.7607 5 9.00002 5 9.00002 6V7H7.00002ZM8.00002 4C5.88546 4 6.00002 5.346 6.00002 7C6.00002 7 5.72659 7 5.50002 7C5.25002 7 5.00002 7.25 5.00002 7.5C5.00002 7.77734 5.00002 11.4997 5.00002 11.4997C5.00003 11.75 5.25392 12 5.50002 12H10.4983C10.7539 12 11 11.75 11 11.4997V7.49609C11 7.24609 10.75 7 10.4983 7H10C10 5.346 10.1146 4 8.00002 4Z"
          fill="#DB5C5C"/>
</svg>
