<svg width="12" height="12" viewBox="0 0 12 12" fill="none" xmlns="http://www.w3.org/2000/svg">
    <path fill-rule="evenodd" clip-rule="evenodd"
          d="M1 -1.52588e-05L1.00001 12L2 12L1.99999 6.99999H11V-6.82473e-06L1 -1.52588e-05ZM1.99999 0.999989H9.99999V5.99999H1.99999V0.999989Z"
          fill="#AFB1B3"/>
    <path d="M4.49947 5.06392C4.25515 5.06297 4.04492 5.00284 3.86879 4.88352C3.6936 4.7642 3.55865 4.59138 3.46396 4.36506C3.37021 4.13873 3.3238 3.86648 3.32475 3.5483C3.32475 3.23106 3.37163 2.9607 3.46538 2.73722C3.56007 2.51373 3.69502 2.34375 3.87021 2.22727C4.04634 2.10985 4.2561 2.05114 4.49947 2.05114C4.74284 2.05114 4.95212 2.10985 5.12731 2.22727C5.30344 2.3447 5.43886 2.51515 5.53356 2.73864C5.62826 2.96117 5.67513 3.23106 5.67418 3.5483C5.67418 3.86742 5.62683 4.14015 5.53214 4.36648C5.43839 4.5928 5.30392 4.76562 5.12873 4.88494C4.95354 5.00426 4.74379 5.06392 4.49947 5.06392ZM4.49947 4.55398C4.66613 4.55398 4.79918 4.47017 4.89862 4.30256C4.99805 4.13494 5.04729 3.88352 5.04634 3.5483C5.04634 3.32765 5.02362 3.14394 4.97816 2.99716C4.93365 2.85038 4.87021 2.74006 4.78782 2.66619C4.70638 2.59233 4.61026 2.5554 4.49947 2.5554C4.33375 2.5554 4.20117 2.63826 4.10174 2.80398C4.00231 2.9697 3.95212 3.2178 3.95117 3.5483C3.95117 3.77178 3.97343 3.95833 4.01793 4.10795C4.06339 4.25663 4.12731 4.36837 4.20969 4.44318C4.29208 4.51705 4.38867 4.55398 4.49947 4.55398Z"
          fill="#AFB1B3"/>
    <path d="M8.0229 2.09091V5H7.40785V2.67472H7.3908L6.72461 3.09233V2.54688L7.44478 2.09091H8.0229Z"
          fill="#4CC764"/>
</svg>
